Hanif_Deep_5_0_grf.mot
version=1
nRows=21
nColumns=19
inDegrees=yes
endheader
time	right_ground_force_vx	right_ground_force_vy	right_ground_force_vz	right_ground_force_px	right_ground_force_py	right_ground_force_pz	right_ground_torque_x	right_ground_torque_y	right_ground_torque_z	left_ground_force_vx	left_ground_force_vy	left_ground_force_vz	left_ground_force_px	left_ground_force_py	left_ground_force_pz	left_ground_torque_x	left_ground_torque_y	left_ground_torque_z
3.475000	-10.927300	291.459000	38.946700	0.218565	0.000000	-1.427400	-22.993400	0.675385	5.712660	-6.707680	273.174000	-34.885100	0.223505	0.000000	-0.983121	22.035400	-4.689550	7.193040
3.480000	-10.157600	291.004000	38.324500	0.218049	0.000000	-1.426690	-23.162900	0.913176	5.569890	-6.185840	276.568000	-35.314700	0.223795	0.000000	-0.983297	22.343400	-4.739440	7.356790
3.485000	-10.164300	294.067000	38.215100	0.217873	0.000000	-1.427730	-23.106900	1.093700	5.590100	-5.669440	278.204000	-35.026100	0.223956	0.000000	-0.983648	22.561900	-4.850750	7.438690
3.490000	-10.181600	294.220000	37.643700	0.216946	0.000000	-1.427580	-23.169800	1.372800	5.345290	-5.967220	281.213000	-34.633300	0.222855	0.000000	-0.983404	22.740400	-4.838180	7.179500
3.495000	-9.552400	297.977000	37.899600	0.215442	0.000000	-1.428740	-23.113600	1.534130	4.964920	-6.379660	283.786000	-34.509100	0.222732	0.000000	-0.982784	22.782800	-4.983430	7.214190
3.500000	-9.428430	297.504000	37.531600	0.214827	0.000000	-1.429200	-22.941700	1.647470	4.780360	-5.921120	286.143000	-34.510800	0.223781	0.000000	-0.982937	23.005200	-5.070770	7.572260
3.505000	-9.083530	299.657000	37.171600	0.214246	0.000000	-1.429720	-22.950400	1.846460	4.649730	-6.600240	288.930000	-33.952300	0.222944	0.000000	-0.983153	23.304600	-5.084840	7.380420
3.510000	-9.191010	303.281000	37.580200	0.212571	0.000000	-1.430950	-22.858200	2.058360	4.211750	-6.266160	290.261000	-33.950800	0.223202	0.000000	-0.982506	23.215800	-5.127200	7.484630
3.515000	-8.843400	303.427000	38.037300	0.211512	0.000000	-1.430920	-22.879600	2.228180	3.910380	-6.085820	291.018000	-34.227000	0.222293	0.000000	-0.982240	23.195600	-5.230300	7.249370
3.520000	-8.623370	303.836000	37.897400	0.211436	0.000000	-1.431350	-22.777500	2.317400	3.898070	-5.317730	292.040000	-34.792000	0.222069	0.000000	-0.981927	23.168200	-5.306010	7.218770
3.525000	-8.384860	306.126000	37.904300	0.210573	0.000000	-1.432100	-22.720100	2.503690	3.673040	-4.817340	294.150000	-34.727500	0.221717	0.000000	-0.981356	23.156400	-5.460860	7.166260
3.530000	-8.097140	309.010000	38.315600	0.209410	0.000000	-1.432950	-22.667800	2.638630	3.352920	-4.353610	295.961000	-35.035400	0.220764	0.000000	-0.981129	23.220800	-5.573010	6.931390
3.535000	-7.699640	310.458000	38.332200	0.208671	0.000000	-1.432820	-22.811100	2.777650	3.145430	-4.053720	298.672000	-35.586400	0.220132	0.000000	-0.980633	23.277200	-5.622800	6.805550
3.540000	-7.809060	312.234000	38.020300	0.208439	0.000000	-1.433080	-22.864200	2.947580	3.102380	-3.418940	300.357000	-35.774300	0.219848	0.000000	-0.980294	23.293200	-5.811460	6.769710
3.545000	-7.876080	315.209000	37.847100	0.208082	0.000000	-1.434250	-22.714900	3.015370	3.014310	-2.567350	303.875000	-36.199100	0.219218	0.000000	-0.979846	23.409600	-5.988810	6.659590
3.550000	-8.356160	314.693000	36.803000	0.206828	0.000000	-1.434490	-22.609400	3.113600	2.612060	-1.968860	306.078000	-37.089200	0.218323	0.000000	-0.979497	23.458300	-6.030170	6.439540
3.555000	-8.448080	318.818000	36.641400	0.206337	0.000000	-1.435290	-22.655300	3.342780	2.499930	-1.660370	309.874000	-37.811200	0.218017	0.000000	-0.979354	23.697200	-6.101110	6.426200
3.560000	-8.658500	317.383000	36.467400	0.205532	0.000000	-1.433970	-22.980500	3.500530	2.252840	-1.062270	312.864000	-38.244300	0.217712	0.000000	-0.978810	23.741700	-6.176230	6.389060
3.565000	-8.962440	320.168000	36.267500	0.204107	0.000000	-1.436290	-22.439500	3.554420	1.805250	-0.055740	315.657000	-38.307700	0.217446	0.000000	-0.978496	23.832100	-6.322320	6.355740
3.570000	-8.940790	318.781000	36.684800	0.203157	0.000000	-1.436280	-22.351300	3.722950	1.519910	0.019057	319.290000	-38.808200	0.216093	0.000000	-0.977616	23.823700	-6.411610	5.993290
3.575000	-8.669410	320.109000	36.726000	0.203044	0.000000	-1.437840	-21.941000	3.778020	1.488400	0.063466	318.417000	-38.314300	0.215776	0.000000	-0.978142	23.925200	-6.550380	5.883680
